<?xml version="1.0" encoding="UTF-8"?>
<svg version="1.1" xmlns="http://www.w3.org/2000/svg" width="734" height="442">
<path d="M0 0 C242.22 0 484.44 0 734 0 C734 145.86 734 291.72 734 442 C491.78 442 249.56 442 0 442 C0 296.14 0 150.28 0 0 Z " fill="#FEFEFE" transform="translate(0,0)"/>
<path d="M0 0 C1.02359619 0.16072998 1.02359619 0.16072998 2.06787109 0.32470703 C21.97617084 3.45804081 40.80465288 8.13717099 59 17 C59.6295459 17.30454102 60.2590918 17.60908203 60.90771484 17.92285156 C75.13051708 24.82194586 88.55906014 32.13599007 101 42 C101.86753906 42.66257813 102.73507812 43.32515625 103.62890625 44.0078125 C138.1249775 71.04944212 161.62682098 110.8401014 167.58984375 154.29736328 C172.05087259 194.56877009 160.94514739 234.44235356 137 267 C136.38850098 267.85053955 136.38850098 267.85053955 135.76464844 268.71826172 C112.17969105 301.31226459 77.06240516 324.61890514 39 337 C37.783125 337.40863281 36.56625 337.81726563 35.3125 338.23828125 C26.30034212 341.20646241 17.36109175 343.38215914 8 345 C6.31390625 345.29197266 6.31390625 345.29197266 4.59375 345.58984375 C-7.82919282 347.61596657 -20.11916339 348.18659826 -32.68188477 348.18530273 C-35.06219103 348.18749971 -37.44204013 348.2057595 -39.82226562 348.22460938 C-48.12313279 348.25492542 -55.86748399 347.84933178 -64 346 C-65.95738756 345.68162973 -67.91552498 345.36775946 -69.875 345.0625 C-75.39504434 344.1689158 -80.77529251 342.88776137 -86.1875 341.48828125 C-90.23092654 340.78629748 -93.08649639 341.94652842 -96.7734375 343.56640625 C-97.50264404 343.88270996 -98.23185059 344.19901367 -98.9831543 344.52490234 C-100.16711792 345.03851318 -100.16711792 345.03851318 -101.375 345.5625 C-104.91040786 347.05686499 -108.45368353 348.53173017 -112 350 C-113.18650146 350.4942749 -113.18650146 350.4942749 -114.39697266 350.99853516 C-127.37969089 356.31346235 -140.72969039 359.91410232 -154.3125 363.3125 C-155.15936371 363.52541687 -156.00622742 363.73833374 -156.87875366 363.95770264 C-165.61657566 366.1407563 -174.36899099 368.17434676 -183.23046875 369.79296875 C-183.89838943 369.91811356 -184.56631012 370.04325836 -185.25447083 370.17219543 C-196.68669187 372.15665407 -196.68669187 372.15665407 -201 370 C-203.24940726 365.50118549 -202.48937812 361.48688448 -200.98046875 356.90234375 C-200.14263513 354.73815117 -199.27948987 352.58352073 -198.38671875 350.44140625 C-190.9945674 332.09637712 -181.78641466 306.92226805 -184 287 C-185.09637841 285.29116588 -185.09637841 285.29116588 -186.8125 284 C-202.41530186 269.62403136 -212.49860221 250.11537667 -221 231 C-221.43183594 230.05511719 -221.86367187 229.11023438 -222.30859375 228.13671875 C-227.19596196 216.82160558 -229.51547778 204.17308217 -231 192 C-231.11214844 191.10925781 -231.22429687 190.21851563 -231.33984375 189.30078125 C-233.03482866 173.02428232 -232.60807159 156.95168103 -229 141 C-228.59974609 139.06833984 -228.59974609 139.06833984 -228.19140625 137.09765625 C-223.17743079 114.10183305 -212.1521682 93.59717763 -198 75 C-197.31679687 74.09121094 -196.63359375 73.18242188 -195.9296875 72.24609375 C-162.48051376 29.57614018 -111.55524235 6.08843909 -58.73217773 -1.12280273 C-39.46036843 -3.36290389 -19.14486342 -3.17438003 0 0 Z " fill="#FDFDFD" transform="translate(414,42)"/>
<path d="M0 0 C1.02359619 0.16072998 1.02359619 0.16072998 2.06787109 0.32470703 C21.97617084 3.45804081 40.80465288 8.13717099 59 17 C59.6295459 17.30454102 60.2590918 17.60908203 60.90771484 17.92285156 C75.13051708 24.82194586 88.55906014 32.13599007 101 42 C101.86753906 42.66257813 102.73507812 43.32515625 103.62890625 44.0078125 C138.1249775 71.04944212 161.62682098 110.8401014 167.58984375 154.29736328 C172.05087259 194.56877009 160.94514739 234.44235356 137 267 C136.38850098 267.85053955 136.38850098 267.85053955 135.76464844 268.71826172 C112.17969105 301.31226459 77.06240516 324.61890514 39 337 C37.783125 337.40863281 36.56625 337.81726563 35.3125 338.23828125 C26.30034212 341.20646241 17.36109175 343.38215914 8 345 C6.31390625 345.29197266 6.31390625 345.29197266 4.59375 345.58984375 C-7.82919282 347.61596657 -20.11916339 348.18659826 -32.68188477 348.18530273 C-35.06219103 348.18749971 -37.44204013 348.2057595 -39.82226562 348.22460938 C-48.12313279 348.25492542 -55.86748399 347.84933178 -64 346 C-65.95738756 345.68162973 -67.91552498 345.36775946 -69.875 345.0625 C-75.39504434 344.1689158 -80.77529251 342.88776137 -86.1875 341.48828125 C-90.23092654 340.78629748 -93.08649639 341.94652842 -96.7734375 343.56640625 C-97.50264404 343.88270996 -98.23185059 344.19901367 -98.9831543 344.52490234 C-100.16711792 345.03851318 -100.16711792 345.03851318 -101.375 345.5625 C-104.91040786 347.05686499 -108.45368353 348.53173017 -112 350 C-113.18650146 350.4942749 -113.18650146 350.4942749 -114.39697266 350.99853516 C-127.37969089 356.31346235 -140.72969039 359.91410232 -154.3125 363.3125 C-155.15936371 363.52541687 -156.00622742 363.73833374 -156.87875366 363.95770264 C-165.61657566 366.1407563 -174.36899099 368.17434676 -183.23046875 369.79296875 C-183.89838943 369.91811356 -184.56631012 370.04325836 -185.25447083 370.17219543 C-196.68669187 372.15665407 -196.68669187 372.15665407 -201 370 C-203.24940726 365.50118549 -202.48937812 361.48688448 -200.98046875 356.90234375 C-200.14263513 354.73815117 -199.27948987 352.58352073 -198.38671875 350.44140625 C-190.9945674 332.09637712 -181.78641466 306.92226805 -184 287 C-185.09637841 285.29116588 -185.09637841 285.29116588 -186.8125 284 C-202.41530186 269.62403136 -212.49860221 250.11537667 -221 231 C-221.43183594 230.05511719 -221.86367187 229.11023438 -222.30859375 228.13671875 C-227.19596196 216.82160558 -229.51547778 204.17308217 -231 192 C-231.11214844 191.10925781 -231.22429687 190.21851563 -231.33984375 189.30078125 C-233.03482866 173.02428232 -232.60807159 156.95168103 -229 141 C-228.59974609 139.06833984 -228.59974609 139.06833984 -228.19140625 137.09765625 C-223.17743079 114.10183305 -212.1521682 93.59717763 -198 75 C-197.31679687 74.09121094 -196.63359375 73.18242188 -195.9296875 72.24609375 C-162.48051376 29.57614018 -111.55524235 6.08843909 -58.73217773 -1.12280273 C-39.46036843 -3.36290389 -19.14486342 -3.17438003 0 0 Z M-61 25 C-63.52020291 25.39982748 -66.0410306 25.79573885 -68.5625 26.1875 C-85.72606004 29.10408008 -102.59986773 33.81482088 -118 42 C-119.27134078 42.64739619 -120.54350073 43.29318584 -121.81640625 43.9375 C-157.0315709 61.9774559 -186.95160013 92.11209026 -200.25 129.9375 C-203.87193771 141.78526069 -206.64628697 153.57390731 -207 166 C-207.03996094 167.0828125 -207.07992187 168.165625 -207.12109375 169.28125 C-207.84141484 206.22948458 -193.48099308 240.8155833 -168 267.375 C-161.9297654 273.8744431 -158.90997308 279.4900682 -158.5625 288.4375 C-159.07635192 301.86616338 -162.05577708 315.08497274 -165.3737793 328.05834961 C-166.3976592 332.11507699 -167.32158601 335.77592432 -167 340 C-155.09082094 338.10363391 -143.83297847 334.80031048 -132.5 330.75 C-131.82814667 330.5105365 -131.15629333 330.271073 -130.46408081 330.02435303 C-123.13117808 327.39569093 -115.91990815 324.60476846 -108.828125 321.37109375 C-95.02286114 315.09386807 -83.434807 316.49099395 -68.99609375 319.9296875 C-56.59654411 322.70768684 -44.45801264 323.37109904 -31.8125 323.3125 C-30.99573792 323.31067719 -30.17897583 323.30885437 -29.33746338 323.30697632 C-17.33065076 323.26185782 -5.71595596 322.85041297 6 320 C7.18432617 319.71866211 7.18432617 319.71866211 8.39257812 319.43164062 C13.26694669 318.25401757 18.10097528 316.96572739 22.92236328 315.58789062 C24.71122127 315.08171318 26.50920749 314.60799806 28.30859375 314.140625 C51.10283587 307.85664668 74.0981595 295.44173996 91.47900391 279.39306641 C93.0598856 277.94515132 94.67231329 276.53989393 96.29296875 275.13671875 C111.67155112 261.64251305 122.19688158 245.27527758 131.04077148 226.95727539 C131.69702565 225.61820957 132.36924801 224.28688391 133.05493164 222.96264648 C136.37577993 216.53547102 138.22434344 210.00763227 140 203 C140.45439453 201.28490234 140.45439453 201.28490234 140.91796875 199.53515625 C143.54512143 188.37284088 143.36233688 177.40228869 143 166 C142.9690625 164.77925781 142.938125 163.55851563 142.90625 162.30078125 C141.08663278 126.04490807 120.30957548 92.19654656 93.98779297 68.26123047 C88.01197642 62.99198401 81.66845468 58.35051454 75 54 C74.38237793 53.59571777 73.76475586 53.19143555 73.12841797 52.77490234 C50.76883908 38.38010328 26.32273766 29.39041003 0.13696289 25.36474609 C-1.34286283 25.11216302 -2.81550833 24.81501053 -4.27954102 24.48291016 C-12.67177669 22.66290724 -20.97063636 22.69637082 -29.51586914 22.73925781 C-32.06095113 22.74999347 -34.60532979 22.73930373 -37.15039062 22.7265625 C-45.36111518 22.71958695 -52.99719785 22.99230822 -61 25 Z " fill="#020202" transform="translate(414,42)"/>
<path d="M0 0 C2.29631976 1.4419651 4.43381468 2.97602819 6.5703125 4.64453125 C7.17488281 5.11117187 7.77945313 5.5778125 8.40234375 6.05859375 C19.40124753 15.74160159 24.51151421 31.72986133 25.77294922 45.92480469 C27.3583707 72.56665606 16.11420558 94.38992891 -0.38671875 114.4375 C-5.03850921 119.4628568 -5.03850921 119.4628568 -8.61328125 119.9296875 C-12.69109685 119.52685303 -15.60840536 119.09281907 -18.4921875 116.01953125 C-20.81705236 111.96976665 -21.3006203 110.23672237 -20.4296875 105.64453125 C-18.74263299 102.72072624 -16.59251848 100.22754412 -14.4296875 97.64453125 C-7.99908923 89.6664628 -3.32302707 82.1106902 0.5703125 72.64453125 C-0.08710938 73.00546875 -0.74453125 73.36640625 -1.421875 73.73828125 C-12.08322583 78.93894019 -24.21871604 79.75614493 -35.5546875 76.01953125 C-45.43326876 71.69105366 -54.25780829 63.90478347 -58.8046875 54.01953125 C-59.36697657 52.56902448 -59.91078335 51.11111823 -60.4296875 49.64453125 C-60.8421875 48.59265625 -61.2546875 47.54078125 -61.6796875 46.45703125 C-63.89572318 35.19218321 -62.99416683 24.04014334 -56.88671875 14.14453125 C-43.18990249 -4.41042349 -20.96640556 -11.69669249 0 0 Z " fill="#020202" transform="translate(444.4296875,170.35546875)"/>
<path d="M0 0 C1.43631743 1.03578131 2.85433868 2.09755497 4.25 3.1875 C4.85457031 3.65414062 5.45914063 4.12078125 6.08203125 4.6015625 C17.48613244 14.64129041 22.12338021 30.9399198 23.125 45.546875 C23.16625 46.41828125 23.2075 47.2896875 23.25 48.1875 C23.29125 48.99703125 23.3325 49.8065625 23.375 50.640625 C24.02877186 75.97428454 10.86832686 97.98647534 -5.75 116.1875 C-9.47722504 118.67231669 -11.2244569 118.4572345 -15.51953125 117.84765625 C-19.41575697 116.69448261 -20.80445469 114.63927394 -22.75 111.1875 C-23.85683449 106.44392359 -23.85683449 106.44392359 -22.75 103.1875 C-20.75791225 100.58349292 -18.56033261 98.30585227 -16.26953125 95.9609375 C-9.79064768 88.82914318 -5.35921618 80.06015643 -1.75 71.1875 C-2.44222656 71.5484375 -3.13445312 71.909375 -3.84765625 72.28125 C-14.71433114 77.4354041 -27.26613628 78.17602314 -38.75 74.1875 C-49.96513821 69.05013079 -58.26895649 60.67252748 -62.75 49.1875 C-66.31155631 39.18122275 -66.2180328 27.47944424 -62.07421875 17.6796875 C-55.66878678 5.62462675 -45.7599864 -2.23368455 -32.86328125 -6.42578125 C-20.92015958 -8.61130629 -10.19773899 -6.40363071 0 0 Z " fill="#010101" transform="translate(346.75,171.8125)"/>
</svg>
